<svg width="36" height="36" viewBox="0 0 36 36" fill="none" xmlns="http://www.w3.org/2000/svg">
<path d="M0 23.508C0 19.0477 4.69388 16.1467 8.68328 18.1414L15.3167 21.4582C17.0059 22.3027 18.9941 22.3027 20.6833 21.4582L27.3167 18.1414C31.3061 16.1467 36 19.0477 36 23.508V29.9998C36 33.3135 33.3137 35.9998 30 35.9998H6C2.68629 35.9998 0 33.3135 0 29.9998V23.508Z" fill="#08060E"/>
<path d="M36 8.89189C36 11.1645 34.716 13.2421 32.6833 14.2585L20.6833 20.2585C18.9941 21.103 17.0059 21.103 15.3167 20.2585L3.31672 14.2585C1.28401 13.2421 0 11.1645 0 8.89189V6.00009C0 2.68639 2.68629 9.72748e-05 6 9.72748e-05L30 9.72748e-05C33.3137 9.72748e-05 36 2.68639 36 6.0001V8.89189Z" fill="#08060E"/>
</svg>
