<svg width="335" height="332" viewBox="0 0 335 332" fill="none" xmlns="http://www.w3.org/2000/svg">
<g clip-path="url(#clip0_51_398)">
<path d="M335 331.24C335 331.662 334.662 332 334.24 332H0.759811C0.338422 332 0 331.662 0 331.24C0 330.819 0.338422 330.481 0.759811 330.481H334.24C334.662 330.481 335 330.819 335 331.24Z" fill="#3F3D56"/>
<path d="M231.482 294.262L235.313 310.218L223.82 313.409L221.266 296.177L231.482 294.262Z" fill="#FFB6B6"/>
<path d="M249.998 242.565L237.867 252.777L230.205 264.904L241.06 271.924L259.576 250.862L249.998 242.565Z" fill="#FFB6B6"/>
<path d="M246.167 137.257L256.383 171.722C256.383 171.722 301.716 211.292 297.247 219.589C292.777 227.886 262.768 250.862 262.768 250.862C262.768 250.862 264.995 258.21 258.454 255.174C251.914 252.139 244.89 243.842 244.89 243.842C244.89 243.842 244.89 237.46 248.083 238.736C251.275 240.013 265.961 222.78 265.961 222.78L234.036 193.422V291.591C234.036 291.591 241.698 298.288 234.036 298.828C226.374 299.368 219.35 300.645 219.35 300.645C219.35 300.645 210.411 297.453 213.604 294.262L204.026 241.927L197.003 178.104L202.111 144.916L246.167 137.257Z" fill="#2F2E41"/>
<path d="M225.735 308.303C225.735 308.303 226.374 305.75 228.928 305.75H236.728C236.728 305.75 239.144 316.6 238.505 316.6C237.867 316.6 248.721 330.641 237.228 331.279C225.735 331.918 222.543 330.641 222.543 330.641L221.266 325.603C221.266 325.603 219.35 322.344 219.989 319.791C220.627 317.238 225.735 308.303 225.735 308.303Z" fill="#2F2E41"/>
<path d="M241.698 266.818C241.698 266.818 249.031 266.703 247.28 268.675C245.529 270.648 242.336 273.839 242.336 273.839C242.336 273.839 234.742 289.156 231.196 286.284C227.651 283.412 221.904 251.501 223.82 247.671C225.735 243.842 228.289 243.842 228.289 243.842L240.069 250.923C240.069 250.923 232.759 268.733 241.698 266.818Z" fill="#2F2E41"/>
<path d="M223.819 83.0076L226.373 67.0518L209.134 60.0312L206.58 84.284L223.819 83.0076Z" fill="#FFB6B6"/>
<path opacity="0.1" d="M223.819 83.0076L226.373 67.0518L209.134 60.0312L206.58 84.284L223.819 83.0076Z" fill="black"/>
<path d="M205.622 80.7738L226.054 75.668L247.763 82.6885C247.763 82.6885 257.341 109.494 254.148 119.068C250.956 128.641 250.956 147.341 250.956 147.341C250.956 147.341 250.636 139.172 232.12 144.916C213.604 150.66 200.195 150.022 200.195 150.022L199.557 127.046L191.536 106.637C188.107 97.9138 191.803 88.0098 200.108 83.661L205.622 80.7738Z" fill="#E6E6E6"/>
<path d="M299.415 155.959C302.298 159.412 302.852 163.697 300.654 165.531C298.456 167.364 294.337 166.052 291.453 162.598C290.283 161.234 289.456 159.609 289.042 157.86L277.011 143.077L282.871 138.337L295.182 152.739C296.83 153.459 298.281 154.563 299.415 155.959Z" fill="#FFB6B6"/>
<path d="M246.836 82.8923L242.648 99.4712L263.142 132.263L284.063 153.28L290.844 147.657L269.745 121.415L253.752 87.6033L246.836 82.8923Z" fill="#E6E6E6"/>
<path d="M295.622 66.89C310.217 65.8119 320.942 49.9771 319.577 31.522C318.213 13.0668 305.276 -1.02011 290.681 0.057971C276.087 1.13605 265.362 16.9709 266.726 35.426C268.091 53.8812 281.028 67.9681 295.622 66.89Z" fill="#6C63FF"/>
<path d="M295.067 66.8901H293.79V194.178H295.067V66.8901Z" fill="#2F2E41"/>
<path d="M295.385 64.2021L295.539 68.7125L297.578 72.888L289.07 72.4542L292.646 68.8587L292.242 64.7604L295.385 64.2021Z" fill="#6C63FF"/>
<path d="M219.464 72.181C229.173 72.181 237.044 64.3133 237.044 54.6082C237.044 44.903 229.173 37.0354 219.464 37.0354C209.755 37.0354 201.884 44.903 201.884 54.6082C201.884 64.3133 209.755 72.181 219.464 72.181Z" fill="#FFB6B6"/>
<path d="M218.06 30.9828C218.569 31.2796 219.25 30.8305 219.414 30.2648C219.577 29.699 219.387 29.0983 219.198 28.5405L218.25 25.7322C217.577 23.7405 216.863 21.6792 215.406 20.1633C213.207 17.8753 209.712 17.2932 206.566 17.7149C202.526 18.2564 198.54 20.4432 196.661 24.0592C194.783 27.6753 195.583 32.7211 198.977 34.9771C194.139 40.5197 192.453 46.6966 192.719 54.0473C192.986 61.398 200.999 68.163 206.225 73.3413C207.392 72.6342 208.453 69.32 207.812 68.1161C207.17 66.9122 208.089 65.5174 207.295 64.4084C206.5 63.2994 205.835 65.0652 206.638 63.9626C207.145 63.2668 205.166 61.666 205.92 61.2496C209.566 59.2353 210.778 54.6932 213.068 51.2149C215.829 47.0195 220.556 44.1783 225.558 43.707C228.314 43.4473 231.224 43.9176 233.483 45.5166C235.741 47.1157 237.203 49.9731 236.68 52.6897C238.036 51.313 238.711 49.2955 238.457 47.3801C238.202 45.4647 237.023 43.6936 235.354 42.7188C236.369 39.3642 235.499 35.5054 233.144 32.9094C230.788 30.3135 221.233 30.7556 217.794 31.4388" fill="#2F2E41"/>
<path d="M217.527 43.8088C212.972 44.3003 209.683 48.244 206.906 51.886C205.306 53.9852 203.629 56.3034 203.669 58.9424C203.71 61.6106 205.495 63.8991 206.348 66.4277C207.742 70.5607 206.383 75.4781 203.064 78.3101C206.344 78.9321 209.889 76.4744 210.455 73.1864C211.114 69.3588 208.211 65.6645 208.555 61.7958C208.858 58.3875 211.545 55.7644 213.829 53.216C216.113 50.6676 218.259 47.2859 217.208 44.0294" fill="#2F2E41"/>
<path d="M200.76 149.702H69.4412C54.5496 149.702 42.4775 161.769 42.4775 176.655V303.939C42.4775 318.824 54.5496 330.891 69.4412 330.891H200.76C215.652 330.891 227.724 318.824 227.724 303.939V176.655C227.724 161.769 215.652 149.702 200.76 149.702Z" fill="white"/>
<path d="M200.76 331.529H69.4411C54.2213 331.529 41.8389 319.153 41.8389 303.939V176.655C41.8389 161.441 54.2213 149.064 69.4411 149.064H200.76C215.98 149.064 228.362 161.441 228.362 176.655V303.939C228.362 319.153 215.98 331.529 200.76 331.529ZM69.4411 150.341C54.9252 150.341 43.1159 162.145 43.1159 176.655V303.939C43.1159 318.449 54.9252 330.253 69.4411 330.253H200.76C215.276 330.253 227.085 318.449 227.085 303.939V176.655C227.085 162.145 215.276 150.341 200.76 150.341H69.4411Z" fill="#3F3D56"/>
<path d="M186.903 162.224C188.585 162.224 189.948 160.861 189.948 159.18C189.948 157.499 188.585 156.136 186.903 156.136C185.222 156.136 183.858 157.499 183.858 159.18C183.858 160.861 185.222 162.224 186.903 162.224Z" fill="#3F3D56"/>
<path d="M195.277 162.224C196.959 162.224 198.322 160.861 198.322 159.18C198.322 157.499 196.959 156.136 195.277 156.136C193.596 156.136 192.232 157.499 192.232 159.18C192.232 160.861 193.596 162.224 195.277 162.224Z" fill="#3F3D56"/>
<path d="M203.651 162.224C205.333 162.224 206.696 160.861 206.696 159.18C206.696 157.499 205.333 156.136 203.651 156.136C201.97 156.136 200.606 157.499 200.606 159.18C200.606 160.861 201.97 162.224 203.651 162.224Z" fill="#3F3D56"/>
<path d="M65.1365 286.33C64.1905 286.33 63.4209 287.1 63.4209 288.045C63.4209 288.506 63.599 288.933 63.9224 289.248C64.2485 289.581 64.6758 289.76 65.1365 289.76H202.476C203.422 289.76 204.192 288.991 204.192 288.045C204.192 287.584 204.013 287.158 203.69 286.843C203.364 286.509 202.937 286.33 202.476 286.33H65.1365Z" fill="#E6E6E6"/>
<path d="M138.572 285.759V290.332H65.1361C64.507 290.332 63.9352 290.08 63.5235 289.657C63.1002 289.246 62.8486 288.674 62.8486 288.045C62.8486 286.788 63.878 285.759 65.1361 285.759L138.572 285.759Z" fill="#6C63FF"/>
<path d="M199.616 277.184H176.742C174.219 277.184 172.167 275.133 172.167 272.611C172.167 270.089 174.219 268.038 176.742 268.038H199.616C202.139 268.038 204.191 270.089 204.191 272.611C204.191 275.133 202.139 277.184 199.616 277.184Z" fill="#6C63FF"/>
<path d="M113.68 280.452L97.6898 226.747L96.4658 227.111L112.4 280.628" fill="#2F2E41"/>
<path d="M114.234 158.228C128.828 157.15 139.553 141.315 138.189 122.86C136.824 104.404 123.887 90.3175 109.293 91.3956C94.6983 92.4737 83.9733 108.309 85.3377 126.764C86.7021 145.219 99.6393 159.306 114.234 158.228Z" fill="#6C63FF"/>
<path d="M113.679 158.228H112.402V285.515H113.679V158.228Z" fill="#2F2E41"/>
<path d="M98.4087 225.191L99.8423 229.47L102.988 232.891L94.71 234.9L97.1118 230.435L95.5552 226.622L98.4087 225.191Z" fill="#6C63FF"/>
<path d="M113.997 155.54L114.15 160.05L116.189 164.226L107.682 163.792L111.258 160.196L110.854 156.098L113.997 155.54Z" fill="#6C63FF"/>
<path d="M98.8388 226.313C112.507 221.086 118.225 202.838 111.611 185.554C104.996 168.27 88.5536 158.495 74.8853 163.722C61.217 168.948 55.4989 187.197 62.1134 204.481C68.728 221.765 85.1705 231.539 98.8388 226.313Z" fill="#6C63FF"/>
<path d="M214.86 143.169C219.167 144.469 221.987 147.744 221.159 150.484C220.331 153.223 216.169 154.39 211.86 153.089C210.132 152.593 208.548 151.691 207.24 150.457L189.061 144.719L191.349 137.539L209.553 142.805C211.326 142.501 213.145 142.626 214.86 143.169Z" fill="#FFB6B6"/>
<path d="M183.275 96.0914L202.43 82.0503L201.791 108.856L183.913 131.832L203.068 139.491L202.43 150.426C202.43 150.426 178.167 144.597 174.336 143.959C170.505 143.321 167.312 134.385 167.312 134.385L183.275 96.0914Z" fill="#E6E6E6"/>
<path d="M61.4188 130.467C61.2773 130.467 61.136 130.462 60.9937 130.453C52.6248 129.916 23.9888 125.864 6.89338 96.3051C5.48454 93.8715 5.76215 90.7773 7.58352 88.6068L39.2436 50.885C40.5383 49.3424 42.5383 48.4536 44.5639 48.478C45.9639 48.5114 49.2786 48.865 49.9224 51.4202C53.7257 66.5168 69.7855 84.2672 89.0997 86.6201C91.0575 86.858 92.629 88.6045 93.3036 91.2917C93.8299 93.3837 93.3436 95.5401 91.9689 97.208L66.6065 128.006C65.3181 129.57 63.4274 130.467 61.4188 130.467ZM44.4424 49.9955C42.8953 49.9955 41.3904 50.6886 40.4067 51.8606L8.74698 89.5823C7.33406 91.2658 7.11761 93.6617 8.20731 95.5446C24.9258 124.451 52.9124 128.412 61.0915 128.938C62.7617 129.05 64.3655 128.338 65.4345 127.041L90.7972 96.2429C91.8621 94.9508 92.2387 93.2814 91.8314 91.6616C91.4333 90.076 90.4581 88.3147 88.9158 88.1264C68.9634 85.6964 52.3761 67.3737 48.4502 51.7909C48.1322 50.5292 46.2178 50.0362 44.5324 49.9962C44.5024 49.9955 44.4724 49.9955 44.4424 49.9955Z" fill="#3F3D56"/>
<path d="M26.0789 97.5465L48.9044 74.2733C50.4647 72.6824 48.0203 70.234 46.458 71.8269L23.6325 95.1001C22.0722 96.691 24.5166 99.1394 26.0789 97.5465Z" fill="#E6E6E6"/>
<path d="M39.8563 104.104C46.1558 98.4572 51.6301 91.9195 56.1127 84.7459C57.2959 82.8522 54.3038 81.1136 53.1253 82.9997C48.7916 89.9351 43.4993 96.199 37.4098 101.657C35.7483 103.146 38.2018 105.586 39.8563 104.104Z" fill="#E6E6E6"/>
<path d="M52.2728 111.955C58.0083 105.601 62.8905 98.5104 66.7343 90.8616C67.7314 88.8773 64.7478 87.1234 63.7468 89.1154C60.0331 96.5055 55.3691 103.368 49.8264 109.508C48.3377 111.157 50.777 113.612 52.2728 111.955Z" fill="#E6E6E6"/>
<path d="M42.4931 70.0556C55.2027 70.0556 65.5058 59.9695 65.5058 47.5278C65.5058 35.086 55.2027 25 42.4931 25C29.7836 25 19.4805 35.086 19.4805 47.5278C19.4805 59.9695 29.7836 70.0556 42.4931 70.0556Z" fill="#6C63FF"/>
<path d="M54.4673 58.2139C50.9281 49.5122 47.3888 40.8105 43.8495 32.1088C43.3607 30.907 41.8294 30.8643 41.3524 32.1088C37.8554 41.2319 35.5702 50.7514 34.4716 60.4575C34.2845 62.1107 36.8756 62.0974 37.0612 60.4575C37.4911 56.6593 38.1294 52.8895 38.9487 49.1599C41.8651 49.3129 44.8055 48.9857 47.6198 48.2066C49.07 51.7719 50.5201 55.3371 51.9702 58.9023C52.5898 60.4258 55.0959 59.7595 54.4673 58.2139ZM39.5359 46.5998C40.4082 43.0294 41.4539 39.5014 42.6673 36.0301L46.6363 45.7883C44.3115 46.3985 41.9341 46.6699 39.5359 46.5998Z" fill="white"/>
<path d="M127.376 102.648C127.263 102.563 127.153 102.475 127.044 102.382C120.665 96.9388 100.162 76.5409 104.179 42.6318C104.509 39.8392 106.585 37.5279 109.343 36.8809L157.291 25.6405C159.251 25.1808 161.385 25.6671 162.993 26.9001C164.094 27.7654 166.536 30.0341 165.521 32.4658C159.523 46.8324 161.75 70.6659 175.806 84.1194C177.232 85.4827 177.444 87.8226 176.374 90.3784C175.543 92.3687 173.861 93.8042 171.762 94.3163L133.004 103.785C131.036 104.266 128.985 103.851 127.376 102.648ZM161.986 28.0423C160.747 27.1156 159.127 26.7692 157.638 27.1184L109.691 38.3589C107.551 38.8606 105.942 40.6494 105.687 42.8099C101.758 75.9714 121.796 95.9073 128.03 101.228C129.301 102.318 131.011 102.709 132.644 102.31L171.402 92.8416C173.028 92.4449 174.33 91.3337 174.974 89.7927C175.605 88.2846 175.879 86.2901 174.757 85.2155C160.236 71.3179 157.929 46.7102 164.12 31.8807C164.621 30.6799 163.383 29.1385 162.058 28.0969C162.034 28.0783 162.01 28.0603 161.986 28.0423Z" fill="#3F3D56"/>
<path d="M118.798 55.1183L151.016 50.1553C153.218 49.8161 152.728 46.3913 150.523 46.731L118.304 51.6939C116.102 52.0332 116.593 55.458 118.798 55.1183Z" fill="#E6E6E6"/>
<path d="M125.903 68.6217C134.329 67.874 142.629 65.9182 150.515 62.8591C152.597 62.0516 151.243 58.8671 149.169 59.6714C141.545 62.6289 133.555 64.4745 125.409 65.1973C123.187 65.3946 123.69 68.8181 125.903 68.6217Z" fill="#E6E6E6"/>
<path d="M131.142 82.346C139.541 80.6943 147.698 77.9409 155.357 74.1186C157.344 73.1271 156.006 69.9355 154.011 70.9309C146.611 74.6239 138.765 77.3254 130.649 78.9217C128.469 79.3504 128.952 82.7768 131.142 82.346Z" fill="#E6E6E6"/>
<path d="M148.409 42.9376C158.586 50.5508 172.878 48.6463 180.33 38.6837C187.783 28.7211 185.575 14.4731 175.398 6.85988C165.221 -0.753326 150.929 1.15122 143.476 11.1138C136.023 21.0764 138.232 35.3244 148.409 42.9376Z" fill="#6C63FF"/>
<path d="M172.977 37.8942C170.27 28.8988 167.563 19.9034 164.856 10.908C164.482 9.66564 162.961 9.47946 162.37 10.6737C158.032 19.4283 154.864 28.6914 152.859 38.2516C152.518 39.88 155.099 40.1099 155.437 38.4946C156.222 34.7535 157.211 31.0602 158.377 27.424C161.266 27.85 164.224 27.8001 167.099 27.2885C168.208 30.9741 169.317 34.6597 170.427 38.3453C170.901 39.9202 173.458 39.492 172.977 37.8942ZM159.202 24.9303C160.405 21.4575 161.777 18.0432 163.311 14.7011L166.347 24.7886C163.975 25.1779 161.583 25.2251 159.202 24.9303Z" fill="white"/>
</g>
<defs>
<clipPath id="clip0_51_398">
<rect width="335" height="332" fill="white"/>
</clipPath>
</defs>
</svg>
