<svg width="397" height="393" viewBox="0 0 397 393" fill="none" xmlns="http://www.w3.org/2000/svg">
<g clip-path="url(#clip0_51_347)">
<path d="M365.679 389.266C363.344 389.266 321.982 389.266 268.08 389.266C214.177 389.266 171.882 389.266 171.882 389.266C171.882 376.979 101.793 306.31 97.1647 235.707C92.0829 158.187 155.13 80.7471 221.848 80.7471C280.08 80.7471 353.927 144.795 375.019 214.703C398.243 291.678 365.679 375.757 365.679 389.266Z" fill="#E5D7F9"/>
<path d="M144.435 52.2311C143.456 50.5841 139.216 52.3476 138.437 50.8528C137.661 49.3635 141.599 47.0942 143.849 41.9102C144.255 40.9753 146.812 35.0841 144.919 33.2662C141.331 29.8206 124.911 44.04 119.165 39.3867C117.904 38.3656 117.023 36.3269 113.206 33.017C111.688 31.7003 110.77 31.1058 109.881 31.327C108.62 31.6408 108.52 33.3229 107.168 36.6302C105.141 41.5902 103.941 41.2907 102.76 45.248C101.883 48.1856 102.083 49.8935 101.052 50.2263C99.5912 50.6971 98.2471 47.5812 96.3964 47.8602C94.5079 48.145 93.3661 51.7729 93.0055 54.4893C92.3287 59.5867 94.2067 62.9503 95.2475 66.4871C96.3787 70.3308 97.05 76.1761 94.4378 84.4511L68.583 157.066C74.291 142.165 90.8182 101.32 97.7629 86.1411C99.7677 81.7594 101.981 77.315 106.527 75.5609C110.902 73.8721 116.912 74.8804 124.574 73.0405C125.469 72.8256 127.952 72.1958 128.265 70.74C128.523 69.5364 127.062 68.8645 127.287 67.7372C127.588 66.2251 130.46 66.2066 133.99 64.4621C136.478 63.2319 138.029 61.769 139.362 60.5109C139.764 60.1316 145.74 54.4236 144.435 52.2311Z" fill="#F2F2F2"/>
<path d="M42.7149 90.4586C41.6212 90.4627 41.2664 93.0455 40.3056 92.9955C39.3482 92.9458 39.3672 90.364 37.4641 87.7674C37.1209 87.2991 34.958 84.3482 33.5167 84.7499C30.7848 85.5112 33.0484 97.6474 29.0993 99.1161C28.2326 99.4385 26.9746 99.2813 24.2437 100.194C23.1573 100.557 22.5997 100.834 22.4522 101.333C22.2429 102.04 23.0423 102.574 24.2806 104.19C26.1378 106.613 25.6443 107.113 27.2518 108.833C28.4452 110.11 29.344 110.505 29.21 111.106C29.0205 111.956 27.0985 111.714 26.7019 112.7C26.2972 113.706 27.7541 115.312 28.9875 116.272C31.302 118.074 33.5 118.126 35.5418 118.637C37.7606 119.192 40.8324 120.551 44.1531 124.216L72.4465 157.817C66.7569 150.725 51.4143 130.854 45.9446 123.077C44.3656 120.832 42.816 118.467 43.2638 115.737C43.6949 113.109 45.9254 110.459 47.2301 106.18C47.3825 105.68 47.7889 104.283 47.1623 103.71C46.6442 103.237 45.892 103.758 45.4017 103.322C44.744 102.739 45.5636 101.328 45.723 99.0981C45.8355 97.5255 45.5625 96.3448 45.3278 95.3294C45.257 95.0234 44.1707 90.453 42.7149 90.4586Z" fill="#F2F2F2"/>
<path d="M64.5339 95.3405L63.875 89.4771L64.1761 89.0326C65.5692 86.9771 66.2792 84.9698 66.2877 83.0644C66.2892 82.7615 66.275 82.4585 66.2608 82.15C66.2039 80.9269 66.133 79.4066 66.9282 77.6342C67.3741 76.6462 68.6267 74.3585 70.5097 74.6417C71.0167 74.7124 71.4002 74.9446 71.6913 75.2164C71.7339 75.1484 71.7779 75.0805 71.8248 75.0068C72.4113 74.115 72.8756 73.7328 73.323 73.3648C73.6666 73.0816 74.0217 72.7901 74.5783 72.0992C74.8226 71.7963 75.0129 71.5302 75.1734 71.3065C75.6605 70.6299 76.2967 69.8229 77.4185 69.8371C78.6171 69.8937 79.2448 70.8818 79.6609 71.5358C80.4036 72.7022 80.7402 73.5431 80.9631 74.1009C81.0441 74.3047 81.1364 74.534 81.1833 74.6048C81.5695 75.1711 84.7094 74.6416 85.8923 74.4491C88.5494 74.0074 90.8485 73.6252 91.7957 75.2956C92.4746 76.4904 91.9704 78.0702 90.2521 80.1171C89.7167 80.7542 89.1472 81.2383 88.6416 81.6177C89.0606 81.8668 89.4354 82.249 89.5875 82.8493C89.9453 84.2705 88.7198 85.6946 85.9463 87.0875C85.2575 87.4358 84.3302 87.9001 83.0308 88.1238C82.4187 88.2285 81.8677 88.254 81.3963 88.2682C81.3863 88.54 81.3224 88.8344 81.1563 89.1373C80.6692 90.0292 79.6553 90.4538 78.1272 90.3519C76.4458 90.2641 75.0612 89.9442 73.8399 89.6639C72.7734 89.4204 71.8546 89.2138 71.1332 89.2619C69.7954 89.3695 68.7644 90.4368 67.5545 91.8213L64.5339 95.3405Z" fill="#F2F2F2"/>
<path d="M67.5903 60.4299L62.0677 62.5525L61.56 62.3749C59.2121 61.553 57.0841 61.3775 55.233 61.8526C54.9387 61.9281 54.6483 62.0186 54.3525 62.1106C53.1801 62.4756 51.7227 62.9297 49.8012 62.6124C48.7293 62.4331 46.1917 61.8056 45.9888 59.9181C45.9289 59.4114 46.0569 58.9827 46.2468 58.6331C46.1701 58.6093 46.093 58.5841 46.0097 58.5576C44.9955 58.2182 44.5068 57.8674 44.0362 57.5294C43.6743 57.2699 43.3013 57.0015 42.4897 56.64C42.1338 56.4813 41.8273 56.3653 41.5695 56.2673C40.7894 55.9693 39.845 55.5605 39.5742 54.4752C39.3251 53.3051 40.1248 52.4493 40.6538 51.8821C41.5974 50.8701 42.3279 50.3323 42.8126 49.9759C42.9899 49.8461 43.189 49.6989 43.2458 49.6358C43.6973 49.1197 42.3871 46.2265 41.9003 45.1347C40.7977 42.6848 39.8436 40.5649 41.2243 39.2278C42.2115 38.2703 43.8724 38.3556 46.2946 39.4933C47.0485 39.8479 47.6628 40.2742 48.1592 40.6655C48.2947 40.1983 48.5704 39.7399 49.1144 39.4411C50.4028 38.7356 52.0955 39.5561 54.1507 41.877C54.6633 42.4527 55.3491 43.2291 55.8957 44.4253C56.1526 44.9889 56.3171 45.5137 56.4505 45.9647C56.7167 45.9054 57.0186 45.8923 57.3548 45.9757C58.3437 46.2191 59.013 47.0891 59.3017 48.5883C59.643 50.2318 59.6838 51.648 59.7216 52.8967C59.7558 53.9868 59.7883 54.9252 60.018 55.6086C60.4617 56.8712 61.759 57.5945 63.4093 58.41L67.5903 60.4299Z" fill="#F2F2F2"/>
<path d="M64.5339 43.1562L63.875 37.2927L64.1761 36.8482C65.5692 34.7928 66.2792 32.7855 66.2877 30.8801C66.2892 30.5772 66.275 30.2742 66.2608 29.9656C66.2039 28.7426 66.133 27.2222 66.9282 25.4499C67.3741 24.4618 68.6267 22.1742 70.5097 22.4573C71.0167 22.5281 71.4002 22.7602 71.6913 23.032C71.7339 22.9641 71.7779 22.8961 71.8248 22.8225C72.4113 21.9307 72.8756 21.5485 73.323 21.1804C73.6666 20.8973 74.0217 20.6057 74.5783 19.9149C74.8226 19.612 75.0129 19.3458 75.1734 19.1222C75.6605 18.4455 76.2967 17.6386 77.4185 17.6528C78.6171 17.7094 79.2448 18.6975 79.6609 19.3515C80.4036 20.5179 80.7402 21.3588 80.9631 21.9165C81.0441 22.1204 81.1364 22.3497 81.1833 22.4205C81.5695 22.9867 84.7094 22.4573 85.8923 22.2648C88.5494 21.8231 90.8485 21.4409 91.7957 23.1113C92.4746 24.306 91.9704 25.8858 90.2521 27.9328C89.7167 28.5698 89.1472 29.0539 88.6416 29.4333C89.0606 29.6825 89.4354 30.0647 89.5875 30.6649C89.9453 32.0862 88.7198 33.5103 85.9463 34.9032C85.2575 35.2515 84.3302 35.7158 83.0308 35.9395C82.4187 36.0442 81.8677 36.0697 81.3963 36.0839C81.3863 36.3556 81.3224 36.6501 81.1563 36.953C80.6692 37.8449 79.6553 38.2695 78.1272 38.1676C76.4458 38.0798 75.0612 37.7599 73.8399 37.4796C72.7734 37.2361 71.8546 37.0295 71.1332 37.0776C69.7954 37.1852 68.7644 38.2525 67.5545 39.637L64.5339 43.1562Z" fill="#F2F2F2"/>
<path d="M70.5517 156.97L69.319 156.2L67.8818 156.364C67.8591 156.231 67.781 155.925 67.6632 155.447C67.0199 152.825 65.0587 144.847 63.4227 132.282C62.2809 123.511 61.6348 114.494 61.5013 105.476C61.3678 96.4448 61.7967 89.6075 62.1404 84.1122C62.4002 79.9673 62.7155 76.0207 63.0251 72.1759C63.8487 61.9043 64.6255 52.2018 64.0475 41.4603C63.9198 39.0623 63.6513 34.0709 60.7259 28.7596C59.0289 25.6793 56.6914 22.9444 53.7773 20.6341L55.5894 18.3635C58.8059 20.9172 61.3919 23.9466 63.2765 27.3667C66.52 33.2556 66.8125 38.6943 66.9531 41.3075C67.541 52.2387 66.7557 62.0346 65.9235 72.4053C65.6168 76.2359 65.3015 80.1655 65.0431 84.2934C64.7022 89.7378 64.2776 96.5156 64.4097 105.431C64.5404 114.341 65.1794 123.248 66.3055 131.908C67.9216 144.315 69.8544 152.174 70.4892 154.756C70.8272 156.135 70.8982 156.424 70.5517 156.97Z" fill="#F2F2F2"/>
<path d="M48.444 25.2404C48.3248 25.2404 48.2041 25.2376 48.0819 25.2291C45.6053 25.096 43.3118 23.6181 41.264 20.8379C40.304 19.5299 39.8127 18.0378 38.8328 15.0623C38.6808 14.6036 37.9423 12.2764 37.4936 9.07429C37.1996 6.98202 37.2366 6.10722 37.6527 5.3343C38.1142 4.47361 38.8612 3.8734 39.7019 3.46855C39.665 3.19108 39.6947 2.90514 39.8155 2.61352C40.3111 1.40461 41.6289 1.56317 42.3418 1.6396C42.7026 1.6849 43.1527 1.74435 43.6384 1.71886C44.4024 1.68208 44.8129 1.45555 45.4348 1.1158C46.0299 0.790208 46.7697 0.385359 47.8675 0.161691C50.0318 -0.288463 51.8452 0.323075 52.4431 0.524073C55.5886 1.56877 57.1394 4.00644 58.9344 6.82912C59.2922 7.39535 60.5206 9.45644 61.3315 12.282C61.9166 14.3204 61.8342 15.2264 61.6581 15.9002C61.3003 17.2847 60.4553 18.0774 58.3095 19.8271C56.0686 21.6589 54.9439 22.5762 53.9782 23.1339C51.7302 24.4278 50.3186 25.2404 48.444 25.2404Z" fill="#F2F2F2"/>
<path d="M99.0272 266.014H180.138C193.879 266.014 205.019 277.118 205.019 290.815V355.673C205.019 369.37 193.879 380.474 180.138 380.474H99.0272C85.286 380.474 74.1465 369.37 74.1465 355.673V290.815C74.1465 277.118 85.286 266.014 99.0272 266.014Z" fill="white"/>
<path d="M73.5576 355.673V290.816C73.5576 276.816 84.9835 265.427 99.0275 265.427H180.138C194.182 265.427 205.608 276.816 205.608 290.816V355.673C205.608 369.672 194.182 381.061 180.138 381.061H99.0275C84.9835 381.061 73.5576 369.672 73.5576 355.673ZM99.0275 266.601C85.6331 266.601 74.736 277.464 74.736 290.816V355.673C74.736 369.025 85.6331 379.887 99.0275 379.887H180.138C193.533 379.887 204.43 369.025 204.43 355.673V290.816C204.43 277.464 193.533 266.601 180.138 266.601H99.0275Z" fill="#3F3D56"/>
<path d="M129.352 294.411H147.52L128.66 350.113C128.263 351.287 127.159 352.077 125.916 352.077H111.777C110.18 352.077 108.885 350.787 108.885 349.194C108.885 348.881 108.936 348.57 109.037 348.273L126.607 296.375C127.005 295.201 128.109 294.411 129.352 294.411L129.352 294.411Z" fill="url(#paint0_linear_51_347)"/>
<path d="M155.753 331.772H126.943C126.207 331.771 125.609 332.366 125.608 333.1C125.608 333.469 125.762 333.822 126.033 334.073L144.545 351.297C145.084 351.798 145.794 352.077 146.531 352.077H162.844L155.753 331.772Z" fill="#0078D4"/>
<path d="M129.352 294.411C128.094 294.406 126.98 295.218 126.601 296.414L109.058 348.225C108.519 349.722 109.3 351.371 110.802 351.908C111.117 352.021 111.45 352.078 111.785 352.077H126.289C127.388 351.881 128.297 351.11 128.668 350.06L132.166 339.782L144.663 351.401C145.186 351.833 145.843 352.071 146.523 352.077H162.775L155.647 331.772L134.868 331.777L147.585 294.411L129.352 294.411Z" fill="url(#paint1_linear_51_347)"/>
<path d="M152.557 296.372C152.16 295.2 151.057 294.411 149.816 294.411H129.568C130.809 294.411 131.912 295.2 132.309 296.372L149.881 348.272C150.392 349.781 149.579 351.417 148.065 351.926C147.767 352.026 147.455 352.078 147.14 352.078H167.388C168.986 352.077 170.281 350.786 170.28 349.193C170.28 348.88 170.229 348.569 170.128 348.272L152.557 296.372Z" fill="url(#paint2_linear_51_347)"/>
<path d="M25.9696 121.538H107.08C120.822 121.538 131.961 132.642 131.961 146.34V211.197C131.961 224.895 120.822 235.999 107.08 235.999H25.9696C12.2283 235.999 1.08887 224.895 1.08887 211.197V146.34C1.08887 132.642 12.2283 121.538 25.9696 121.538Z" fill="white"/>
<path d="M0.5 211.197V146.34C0.5 132.341 11.9259 120.951 25.9699 120.951H107.081C121.125 120.951 132.551 132.341 132.551 146.34V211.197C132.551 225.197 121.125 236.586 107.081 236.586H25.9699C11.9259 236.586 0.5 225.197 0.5 211.197ZM25.9699 122.126C12.5754 122.126 1.67835 132.988 1.67835 146.34V211.197C1.67835 224.549 12.5755 235.411 25.9699 235.411H107.081C120.475 235.411 131.372 224.549 131.372 211.197V146.34C131.372 132.988 120.475 122.126 107.081 122.126L25.9699 122.126Z" fill="#3F3D56"/>
<path d="M50.3259 179.761C50.3259 180.672 50.4246 181.41 50.5975 181.952C50.795 182.493 51.042 183.084 51.3877 183.724C51.5111 183.921 51.5605 184.118 51.5605 184.29C51.5605 184.536 51.4124 184.782 51.0913 185.028L49.5357 186.062C49.3134 186.21 49.0912 186.284 48.8937 186.284C48.6467 186.284 48.3998 186.161 48.1529 185.939C47.8072 185.57 47.5108 185.176 47.2639 184.782C47.017 184.364 46.77 183.896 46.4984 183.33C44.5723 185.595 42.1524 186.727 39.2386 186.727C37.1644 186.727 35.5099 186.136 34.3 184.955C33.09 183.773 32.4727 182.198 32.4727 180.229C32.4727 178.136 33.2135 176.438 34.7197 175.158C36.226 173.878 38.2262 173.238 40.7696 173.238C41.6091 173.238 42.4734 173.312 43.3871 173.435C44.3007 173.558 45.2391 173.755 46.2268 173.976V172.18C46.2268 170.309 45.8317 169.004 45.0662 168.241C44.276 167.478 42.9426 167.109 41.0412 167.109C40.1769 167.109 39.288 167.207 38.3743 167.429C37.4607 167.65 36.5717 167.921 35.7075 168.266C35.3124 168.438 35.016 168.537 34.8432 168.586C34.6703 168.635 34.5469 168.66 34.4481 168.66C34.1024 168.66 33.9295 168.414 33.9295 167.897V166.69C33.9295 166.297 33.9789 166.001 34.1024 165.829C34.2259 165.657 34.4481 165.484 34.7938 165.312C35.6581 164.869 36.6952 164.5 37.9052 164.204C39.1151 163.884 40.3992 163.737 41.7573 163.737C44.6958 163.737 46.8441 164.401 48.2269 165.73C49.585 167.06 50.2765 169.078 50.2765 171.786V179.761L50.3259 179.761ZM40.3004 183.502C41.1153 183.502 41.9549 183.355 42.8438 183.059C43.7328 182.764 44.5229 182.222 45.1897 181.484C45.5848 181.016 45.8811 180.499 46.0292 179.909C46.1774 179.318 46.2762 178.604 46.2762 177.767V176.733C45.5601 176.561 44.7946 176.413 44.0044 176.315C43.2142 176.216 42.4487 176.167 41.6832 176.167C40.0288 176.167 38.8188 176.487 38.0039 177.152C37.1891 177.816 36.794 178.752 36.794 179.982C36.794 181.139 37.0903 182.001 37.7076 182.592C38.3003 183.207 39.1645 183.502 40.3004 183.502ZM60.1291 186.161C59.6846 186.161 59.3883 186.087 59.1907 185.915C58.9932 185.767 58.8203 185.422 58.6722 184.955L52.8693 165.927C52.7211 165.435 52.647 165.115 52.647 164.943C52.647 164.549 52.8446 164.327 53.2397 164.327H55.6596C56.1288 164.327 56.4498 164.401 56.6226 164.574C56.8202 164.721 56.9683 165.066 57.1165 165.534L61.265 181.829L65.1171 165.534C65.2406 165.041 65.3887 164.721 65.5863 164.574C65.7838 164.426 66.1295 164.327 66.574 164.327H68.5495C69.0186 164.327 69.3396 164.401 69.5372 164.574C69.7347 164.721 69.9076 165.066 70.0064 165.534L73.9079 182.025L78.1798 165.534C78.328 165.041 78.5008 164.721 78.6737 164.574C78.8712 164.426 79.1922 164.327 79.6367 164.327H81.9332C82.3283 164.327 82.5505 164.524 82.5505 164.943C82.5505 165.066 82.5258 165.189 82.5011 165.337C82.4764 165.484 82.4271 165.681 82.3283 165.952L76.3772 184.979C76.2291 185.472 76.0562 185.792 75.8587 185.939C75.6611 186.087 75.3401 186.185 74.9203 186.185H72.7967C72.3275 186.185 72.0065 186.112 71.809 185.939C71.6114 185.767 71.4386 185.447 71.3398 184.955L67.5123 169.078L63.7096 184.93C63.5861 185.422 63.438 185.742 63.2404 185.915C63.0429 186.087 62.6972 186.161 62.2527 186.161L60.1291 186.161ZM91.8599 186.825C90.5758 186.825 89.2918 186.678 88.0571 186.382C86.8224 186.087 85.8594 185.767 85.2174 185.398C84.8223 185.176 84.5507 184.93 84.4519 184.708C84.3531 184.487 84.3037 184.241 84.3037 184.019V182.764C84.3037 182.247 84.5013 182.001 84.8717 182.001C85.0198 182.001 85.168 182.025 85.3162 182.075C85.4643 182.124 85.6866 182.222 85.9335 182.321C86.7731 182.69 87.6867 182.985 88.6497 183.182C89.6375 183.379 90.6005 183.478 91.5882 183.478C93.1439 183.478 94.3539 183.207 95.1934 182.665C96.033 182.124 96.4775 181.336 96.4775 180.327C96.4775 179.638 96.2553 179.072 95.8108 178.604C95.3663 178.136 94.5267 177.718 93.3168 177.324L89.7363 176.216C87.9336 175.65 86.6002 174.813 85.7853 173.706C84.9705 172.623 84.5507 171.417 84.5507 170.137C84.5507 169.103 84.7729 168.192 85.2174 167.404C85.6619 166.617 86.2545 165.927 86.9953 165.386C87.7361 164.82 88.5757 164.401 89.5634 164.106C90.5511 163.811 91.5882 163.688 92.6747 163.688C93.218 163.688 93.7859 163.712 94.3292 163.786C94.8971 163.86 95.4157 163.958 95.9343 164.057C96.4281 164.18 96.8973 164.303 97.3418 164.451C97.7863 164.598 98.132 164.746 98.3789 164.894C98.7246 165.091 98.9715 165.287 99.1197 165.509C99.2678 165.706 99.3419 165.977 99.3419 166.321V167.478C99.3419 167.995 99.1444 168.266 98.774 168.266C98.5764 168.266 98.2554 168.167 97.8357 167.97C96.4281 167.331 94.8478 167.011 93.0946 167.011C91.687 167.011 90.5758 167.232 89.8104 167.7C89.0449 168.167 88.6498 168.881 88.6498 169.89C88.6498 170.58 88.8967 171.17 89.3906 171.638C89.8844 172.106 90.7981 172.573 92.1068 172.992L95.6133 174.1C97.3912 174.666 98.6752 175.453 99.4407 176.463C100.206 177.472 100.577 178.629 100.577 179.909C100.577 180.967 100.354 181.927 99.9346 182.764C99.4901 183.601 98.8975 184.339 98.132 184.93C97.3665 185.545 96.4528 185.988 95.391 186.308C94.2798 186.653 93.1192 186.825 91.8599 186.825Z" fill="#252F3E"/>
<path fill-rule="evenodd" clip-rule="evenodd" d="M96.5264 198.788C88.4024 204.77 76.599 207.945 66.4501 207.945C52.2268 207.945 39.411 202.702 29.7313 193.988C28.9658 193.299 29.6572 192.364 30.5708 192.905C41.0408 198.961 53.9553 202.628 67.3144 202.628C76.3274 202.628 86.2294 200.757 95.3412 196.918C96.6993 196.302 97.8599 197.804 96.5264 198.788Z" fill="#FF9900"/>
<path fill-rule="evenodd" clip-rule="evenodd" d="M99.9093 194.948C98.8722 193.619 93.0446 194.308 90.4024 194.628C89.6123 194.727 89.4888 194.038 90.2049 193.521C94.8472 190.272 102.477 191.207 103.366 192.29C104.255 193.398 103.119 201.004 98.7734 204.647C98.1067 205.213 97.4647 204.917 97.761 204.179C98.7487 201.742 100.946 196.253 99.9093 194.948Z" fill="#FF9900"/>
<path d="M252.92 164.733C252.33 164.145 247.617 151.812 247.617 151.812L236.423 151.225L231.301 163.262L252.92 164.733Z" fill="#FFB6B6"/>
<path d="M237.038 156.906C245.36 156.906 252.106 150.182 252.106 141.886C252.106 133.591 245.36 126.866 237.038 126.866C228.716 126.866 221.97 133.591 221.97 141.886C221.97 150.182 228.716 156.906 237.038 156.906Z" fill="#FFB6B6"/>
<path d="M265.587 246.073L270.89 263.692L256.75 365.882H247.177L242.02 288.946L236.129 315.375L266.176 353.549L258.517 362.359L215.213 320.367L216.097 255.47L219.632 245.486L265.587 246.073Z" fill="#2F2E41"/>
<path d="M249.67 154.225L248.493 154.283C248.493 154.283 247.441 144.927 246.824 144.369C246.206 143.811 245.087 145.042 245.087 145.042C245.087 145.042 240.235 142.34 240.09 139.407C239.945 136.474 239.829 134.128 238.063 134.215C236.298 134.302 226.41 137.139 224.056 137.255C221.702 137.37 217.969 133.438 221.914 129.716C225.859 125.994 229.332 124.647 229.892 124.032C230.451 123.416 234.135 120.883 237.353 123.077C240.571 125.272 244.69 125.069 244.69 125.069C244.69 125.069 252.427 126.453 251.424 130.031C250.421 133.608 254.3 140.474 252.708 144.08C251.117 147.686 249.67 154.225 249.67 154.225Z" fill="#2F2E41"/>
<path d="M246.733 364.121L257.338 365.295L258.517 384.676C258.517 384.676 257.928 394.073 247.912 392.898C237.896 391.724 240.842 382.327 240.842 382.327L246.733 364.121Z" fill="#2F2E41"/>
<path d="M260.578 350.319C260.578 350.319 268.238 346.795 269.416 350.906L271.773 359.129C271.773 359.129 271.773 367.351 272.362 367.938C272.951 368.525 284.145 383.795 274.129 392.017C274.129 392.017 268.827 392.605 265.881 384.383C262.935 376.16 254.098 367.938 254.098 367.938C254.098 367.938 252.386 363.827 255.304 364.121C258.222 364.414 262.346 357.367 261.168 355.018C259.989 352.668 260.578 350.319 260.578 350.319Z" fill="#2F2E41"/>
<path d="M163.305 273.591C160.564 272.44 159.813 268.027 161.627 263.732C162.329 262.006 163.434 260.473 164.852 259.261L166.969 254.42L166.894 254.369L172.982 230.182C174.397 224.558 178.295 219.814 183.647 217.545C186.832 216.195 189.853 215.951 190.731 219.185C192.189 224.552 182.694 241.839 176.968 251.565L172.508 262.475C172.629 264.334 172.301 266.194 171.552 267.9C169.739 272.194 166.046 274.742 163.305 273.591Z" fill="#FFB6B6"/>
<path d="M231.709 161.208L251.152 161.796L270.005 170.018L267.059 218.764C267.059 218.764 270.594 229.923 268.827 231.685C267.059 233.446 268.827 241.345 267.649 241.507C266.47 241.669 267.649 250.164 267.649 250.164C267.649 250.164 251.152 244.605 237.012 248.129C222.871 251.653 218.158 245.78 218.158 245.78C218.158 245.78 214.623 231.685 214.623 228.748V168.7L231.709 161.208Z" fill="#6C63FF"/>
<path d="M217.864 168.55C217.864 168.55 209.616 166.201 205.491 172.074C201.367 177.947 199.01 177.947 199.01 185.582C199.01 185.582 174.854 219.645 176.033 223.169L170.436 232.272L184.576 239.907C184.576 239.907 189.584 234.915 189.584 230.216C189.584 225.518 203.724 212.597 203.724 212.597C203.724 212.597 216.096 196.74 216.686 190.867C217.275 184.994 217.864 168.55 217.864 168.55Z" fill="#6C63FF"/>
<path d="M290.509 276.585H371.619C385.361 276.585 396.5 287.69 396.5 301.387V366.244C396.5 379.942 385.361 391.046 371.619 391.046H290.509C276.767 391.046 265.628 379.942 265.628 366.244V301.387C265.628 287.69 276.767 276.585 290.509 276.585Z" fill="white"/>
<path d="M264.449 365.657V300.8C264.449 286.801 275.875 275.411 289.919 275.411H371.03C385.074 275.411 396.5 286.801 396.5 300.8V365.657C396.5 379.657 385.074 391.046 371.03 391.046H289.919C275.875 391.046 264.449 379.657 264.449 365.657ZM289.919 276.586C276.525 276.586 265.628 287.448 265.628 300.8V365.657C265.628 379.009 276.525 389.871 289.919 389.871H371.03C384.424 389.871 395.322 379.009 395.322 365.657V300.8C395.322 287.448 384.424 276.586 371.03 276.586H289.919Z" fill="#3F3D56"/>
<path d="M341.388 321.932H343.389L349.094 316.246L349.374 313.832C338.757 304.491 322.555 305.498 313.184 316.081C310.581 319.02 308.692 322.517 307.662 326.301C308.298 326.042 309.002 326 309.664 326.182L321.072 324.306C321.072 324.306 321.653 323.349 321.953 323.408C327.028 317.853 335.568 317.205 341.428 321.932L341.388 321.932Z" fill="#EA4335"/>
<path d="M357.22 326.301C355.909 321.488 353.217 317.161 349.475 313.852L341.468 321.832C344.849 324.586 346.775 328.734 346.692 333.085V334.501C350.628 334.501 353.818 337.681 353.818 341.604C353.818 345.527 350.628 348.707 346.692 348.707H332.442L331.021 350.144V358.663L332.442 360.079H346.692C356.928 360.159 365.291 351.952 365.37 341.749C365.418 335.564 362.359 329.766 357.22 326.301Z" fill="#4285F4"/>
<path d="M318.171 360H332.422V348.627H318.171C317.156 348.627 316.152 348.409 315.229 347.989L313.227 348.607L307.483 354.293L306.982 356.289C310.204 358.713 314.134 360.017 318.171 360Z" fill="#34A853"/>
<path d="M318.17 323.109C307.935 323.17 299.686 331.491 299.747 341.694C299.782 347.392 302.451 352.755 306.982 356.229L315.248 347.989C311.662 346.374 310.068 342.166 311.689 338.591C313.309 335.017 317.529 333.428 321.116 335.043C322.696 335.755 323.962 337.016 324.675 338.591L332.942 330.351C329.425 325.768 323.959 323.088 318.17 323.109Z" fill="#FBBC05"/>
<path d="M281.838 286.881C284.808 286.725 287.018 282.828 286.773 278.174C286.701 276.314 286.183 274.498 285.262 272.878L284.919 267.608L285.007 267.585L287.515 242.775C288.098 237.006 286.047 231.225 281.785 227.279C279.25 224.932 276.491 223.681 274.563 226.426C271.365 230.98 274.411 250.454 276.485 261.539L276.966 273.311C276.22 275.019 275.895 276.88 276.018 278.738C276.262 283.39 278.868 287.036 281.838 286.881Z" fill="#FFB6B6"/>
<path d="M266.282 169.616C266.282 169.616 274.84 170.197 276.72 177.117C278.6 184.036 280.817 184.834 278.217 192.015C278.217 192.015 289.342 232.229 287.034 235.145L289.199 245.602L273.299 248C273.299 248 270.288 241.61 271.888 237.19C273.487 232.771 264.585 215.833 264.585 215.833C264.585 215.833 258.346 196.731 259.791 191.008C261.237 185.284 266.282 169.616 266.282 169.616Z" fill="#6C63FF"/>
<path d="M363.5 389.759C363.5 390.181 363.162 390.519 362.74 390.519H29.2598C28.8384 390.519 28.5 390.181 28.5 389.759C28.5 389.338 28.8384 389 29.2598 389H362.74C363.162 389 363.5 389.338 363.5 389.759Z" fill="#3F3D56"/>
</g>
<defs>
<linearGradient id="paint0_linear_51_347" x1="135.974" y1="298.684" x2="117.214" y2="354.283" gradientUnits="userSpaceOnUse">
<stop stop-color="#114A8B"/>
<stop offset="1" stop-color="#0669BC"/>
</linearGradient>
<linearGradient id="paint1_linear_51_347" x1="141.867" y1="324.577" x2="137.506" y2="326.056" gradientUnits="userSpaceOnUse">
<stop stop-opacity="0.3"/>
<stop offset="0.071" stop-opacity="0.2"/>
<stop offset="0.321" stop-opacity="0.1"/>
<stop offset="0.623" stop-opacity="0.05"/>
<stop offset="1" stop-opacity="0"/>
</linearGradient>
<linearGradient id="paint2_linear_51_347" x1="139.603" y1="297.013" x2="160.198" y2="352.058" gradientUnits="userSpaceOnUse">
<stop stop-color="#3CCBF4"/>
<stop offset="1" stop-color="#2892DF"/>
</linearGradient>
<clipPath id="clip0_51_347">
<rect width="396" height="393" fill="white" transform="translate(0.5)"/>
</clipPath>
</defs>
</svg>
