<svg width="90" height="196" viewBox="0 0 90 196" fill="none" xmlns="http://www.w3.org/2000/svg">
<path d="M63.1766 190.939L47.2785 137.253L46.0615 137.617L61.9039 191.114" fill="#2F2E41"/>
<path d="M63.7274 68.7591C78.2376 67.6814 88.9008 51.8524 87.5442 33.404C86.1877 14.9556 73.3252 0.873821 58.815 1.95151C44.3048 3.02919 33.6417 18.8582 34.9982 37.3066C36.3547 55.755 49.2172 69.8368 63.7274 68.7591Z" fill="#AE98DE"/>
<path d="M63.1759 68.7588H61.9062V196H63.1759V68.7588Z" fill="#2F2E41"/>
<path d="M47.9938 135.697L49.4191 139.975L52.5467 143.395L44.3164 145.403L46.7044 140.939L45.1568 137.128L47.9938 135.697Z" fill="#6C63FF"/>
<path d="M63.4916 66.0718L63.6439 70.5805L65.6713 74.7544L57.2129 74.3208L60.7684 70.7266L60.3665 66.6298L63.4916 66.0718Z" fill="#6C63FF"/>
<path d="M48.4209 136.819C62.0103 131.594 67.6955 113.352 61.1191 96.0746C54.5427 78.7969 38.1951 69.026 24.6057 74.2505C11.0164 79.4751 5.33121 97.7168 11.9076 114.994C18.484 132.272 34.8316 142.043 48.4209 136.819Z" fill="#AE98DE"/>
</svg>
