<svg width="54" height="54" viewBox="0 0 54 54" fill="none" xmlns="http://www.w3.org/2000/svg">
<path d="M46 27H48V36H46V27Z" fill="#4B4B4B"/>
<path d="M45 37C45 35.8954 45.8954 35 47 35C48.1046 35 49 35.8954 49 37C49 38.1046 48.1046 39 47 39C45.8954 39 45 38.1046 45 37Z" fill="#FBBC05"/>
<path d="M45.7486 38.6286C45.9004 38.249 46.2681 38 46.677 38H47.323C47.7319 38 48.0996 38.249 48.2514 38.6286L49.4514 41.6286C49.7142 42.2855 49.2304 43 48.523 43H45.477C44.7696 43 44.2858 42.2855 44.5486 41.6286L45.7486 38.6286Z" fill="#6627D8"/>
<path d="M16.0376 29.2915H39.7115V38.735C39.7115 39.3779 39.3396 39.9627 38.7573 40.2352C31.8611 43.4628 23.888 43.4628 16.9918 40.2352C16.4096 39.9627 16.0376 39.3779 16.0376 38.735V29.2915Z" fill="#FBBC05"/>
<path d="M0 27L27.9446 17.8359L54 27L27.9446 35.7823L0 27Z" fill="#6627D8"/>
</svg>
